<svg width="54" height="54" viewBox="0 0 54 54" fill="none" xmlns="http://www.w3.org/2000/svg">
<path d="M35.49 32.5861C35.1986 33.2653 34.8386 33.913 34.4156 34.5191C33.8506 35.3262 33.3865 35.8839 33.0309 36.1943C32.4784 36.7015 31.8849 36.9625 31.2504 36.9772C30.7959 36.9772 30.2466 36.8478 29.6068 36.5847C28.9649 36.3227 28.3757 36.1943 27.8358 36.1943C27.2708 36.1943 26.6647 36.3227 26.0154 36.5847C25.3672 36.8478 24.8432 36.9856 24.4423 36.9982C23.8351 37.0245 23.228 36.7573 22.6229 36.1943C22.2368 35.8576 21.7538 35.2788 21.174 34.4602C20.5531 33.5879 20.0428 32.5724 19.6429 31.4181C19.2147 30.1691 19 28.9611 19 27.7909C19 26.4514 19.2894 25.295 19.8692 24.3269C20.3077 23.5666 20.9346 22.9321 21.6896 22.4844C22.434 22.0379 23.2838 21.7975 24.1519 21.7878C24.6359 21.7878 25.2704 21.9372 26.0565 22.2318C26.8425 22.5265 27.3476 22.6759 27.5675 22.6759C27.7338 22.6759 28.2925 22.5002 29.2438 22.1519C30.1413 21.8288 30.899 21.6952 31.5198 21.7478C33.2034 21.8835 34.4672 22.5465 35.308 23.7418C33.8032 24.6542 33.0593 25.9305 33.074 27.5689C33.0866 28.8453 33.5507 29.907 34.4598 30.7499C34.8618 31.1345 35.3307 31.4423 35.8436 31.658C35.732 31.9811 35.6142 32.2894 35.49 32.5861V32.5861ZM31.6313 17.4009C31.6313 18.4006 31.2652 19.335 30.538 20.1989C29.6584 21.2259 28.5956 21.8204 27.4433 21.7268C27.4283 21.6011 27.4209 21.4745 27.4212 21.3479C27.4212 20.3872 27.8379 19.3602 28.5819 18.5195C28.9523 18.0944 29.4237 17.7397 29.9951 17.4577C30.5654 17.1799 31.1042 17.0263 31.6114 17C31.625 17.1347 31.6313 17.2683 31.6313 17.4009V17.4009Z" fill="white"/>
<rect x="0.5" y="0.5" width="53" height="53" rx="6.49" stroke="#606060"/>
</svg>
