<svg width="20" height="20" viewBox="0 0 20 20" fill="none" xmlns="http://www.w3.org/2000/svg">
<path d="M10.3125 1.875C8.24176 1.87913 6.25702 2.70356 4.79279 4.16779C3.32856 5.63202 2.50413 7.61676 2.5 9.6875V16.2734C2.5 16.5987 2.62923 16.9107 2.85925 17.1407C3.08928 17.3708 3.40126 17.5 3.72656 17.5H10.3125C12.3845 17.5 14.3716 16.6769 15.8368 15.2118C17.3019 13.7466 18.125 11.7595 18.125 9.6875C18.125 7.6155 17.3019 5.62836 15.8368 4.16323C14.3716 2.6981 12.3845 1.875 10.3125 1.875ZM12.5 11.875H7.8125C7.64674 11.875 7.48777 11.8092 7.37056 11.6919C7.25335 11.5747 7.1875 11.4158 7.1875 11.25C7.1875 11.0842 7.25335 10.9253 7.37056 10.8081C7.48777 10.6908 7.64674 10.625 7.8125 10.625H12.5C12.6658 10.625 12.8247 10.6908 12.9419 10.8081C13.0592 10.9253 13.125 11.0842 13.125 11.25C13.125 11.4158 13.0592 11.5747 12.9419 11.6919C12.8247 11.8092 12.6658 11.875 12.5 11.875ZM12.5 9.375H7.8125C7.64674 9.375 7.48777 9.30915 7.37056 9.19194C7.25335 9.07473 7.1875 8.91576 7.1875 8.75C7.1875 8.58424 7.25335 8.42527 7.37056 8.30806C7.48777 8.19085 7.64674 8.125 7.8125 8.125H12.5C12.6658 8.125 12.8247 8.19085 12.9419 8.30806C13.0592 8.42527 13.125 8.58424 13.125 8.75C13.125 8.91576 13.0592 9.07473 12.9419 9.19194C12.8247 9.30915 12.6658 9.375 12.5 9.375Z" fill="#101010"/>
</svg>
