<svg width="26" height="26" viewBox="0 0 26 26" fill="none" xmlns="http://www.w3.org/2000/svg">
<path d="M13.4062 2.4375C10.7143 2.44287 8.13413 3.51462 6.23063 5.41813C4.32712 7.32163 3.25537 9.90179 3.25 12.5938V21.1555C3.25 21.5784 3.41799 21.9839 3.71703 22.283C4.01606 22.582 4.42164 22.75 4.84453 22.75H13.4062C16.0999 22.75 18.6831 21.68 20.5878 19.7753C22.4925 17.8706 23.5625 15.2874 23.5625 12.5938C23.5625 9.90015 22.4925 7.31686 20.5878 5.4122C18.6831 3.50753 16.0999 2.4375 13.4062 2.4375ZM16.25 15.4375H10.1562C9.94076 15.4375 9.7341 15.3519 9.58173 15.1995C9.42935 15.0472 9.34375 14.8405 9.34375 14.625C9.34375 14.4095 9.42935 14.2028 9.58173 14.0505C9.7341 13.8981 9.94076 13.8125 10.1562 13.8125H16.25C16.4655 13.8125 16.6722 13.8981 16.8245 14.0505C16.9769 14.2028 17.0625 14.4095 17.0625 14.625C17.0625 14.8405 16.9769 15.0472 16.8245 15.1995C16.6722 15.3519 16.4655 15.4375 16.25 15.4375ZM16.25 12.1875H10.1562C9.94076 12.1875 9.7341 12.1019 9.58173 11.9495C9.42935 11.7972 9.34375 11.5905 9.34375 11.375C9.34375 11.1595 9.42935 10.9528 9.58173 10.8005C9.7341 10.6481 9.94076 10.5625 10.1562 10.5625H16.25C16.4655 10.5625 16.6722 10.6481 16.8245 10.8005C16.9769 10.9528 17.0625 11.1595 17.0625 11.375C17.0625 11.5905 16.9769 11.7972 16.8245 11.9495C16.6722 12.1019 16.4655 12.1875 16.25 12.1875Z" fill="#808080"/>
</svg>
