<svg width="21" height="21" viewBox="0 0 21 21" fill="none" xmlns="http://www.w3.org/2000/svg">
<path d="M10.1562 0.4375C7.46429 0.442868 4.88413 1.51462 2.98063 3.41813C1.07712 5.32163 0.00536782 7.90179 0 10.5938V19.1555C0 19.5784 0.167995 19.9839 0.467027 20.283C0.76606 20.582 1.17164 20.75 1.59453 20.75H10.1562C12.8499 20.75 15.4331 19.68 17.3378 17.7753C19.2425 15.8706 20.3125 13.2874 20.3125 10.5938C20.3125 7.90015 19.2425 5.31686 17.3378 3.4122C15.4331 1.50753 12.8499 0.4375 10.1562 0.4375V0.4375ZM13 13.4375H6.90625C6.69076 13.4375 6.4841 13.3519 6.33173 13.1995C6.17935 13.0472 6.09375 12.8405 6.09375 12.625C6.09375 12.4095 6.17935 12.2028 6.33173 12.0505C6.4841 11.8981 6.69076 11.8125 6.90625 11.8125H13C13.2155 11.8125 13.4222 11.8981 13.5745 12.0505C13.7269 12.2028 13.8125 12.4095 13.8125 12.625C13.8125 12.8405 13.7269 13.0472 13.5745 13.1995C13.4222 13.3519 13.2155 13.4375 13 13.4375ZM13 10.1875H6.90625C6.69076 10.1875 6.4841 10.1019 6.33173 9.94952C6.17935 9.79715 6.09375 9.59049 6.09375 9.375C6.09375 9.15951 6.17935 8.95285 6.33173 8.80048C6.4841 8.6481 6.69076 8.5625 6.90625 8.5625H13C13.2155 8.5625 13.4222 8.6481 13.5745 8.80048C13.7269 8.95285 13.8125 9.15951 13.8125 9.375C13.8125 9.59049 13.7269 9.79715 13.5745 9.94952C13.4222 10.1019 13.2155 10.1875 13 10.1875Z" fill="white"/>
</svg>
