<svg width="20" height="20" viewBox="0 0 20 20" fill="none" xmlns="http://www.w3.org/2000/svg">
<path d="M1.51111 3.01175H3.47222V4.50008H2.48C1.48778 4.50008 1.48778 4.99619 1.48778 5.4923V9.59619C1.48778 10.3512 2.20389 10.4529 2.20389 10.4529H3.47222V11.9412H1.51111C0.676667 11.9412 0 11.2651 0 10.4306V4.5223C0 3.68842 0.676111 3.01175 1.51111 3.01175Z" fill="#FFAC33"/>
<path d="M2.97614 3.01175H11.4089V13.3095C11.4089 13.9206 10.9089 14.4206 10.2978 14.4206H4.08725C3.47614 14.4206 2.97614 13.9206 2.97614 13.3095V3.01175Z" fill="#FFAC33"/>
<path d="M4.71225 12.9323C4.98614 12.9323 5.20836 12.7106 5.20836 12.4362V6.98008C5.20836 6.70619 4.98669 6.48397 4.71225 6.48397C4.43836 6.48397 4.21614 6.70564 4.21614 6.98008V12.4362C4.21614 12.7106 4.43836 12.9323 4.71225 12.9323ZM7.19225 12.9323C7.46614 12.9323 7.68836 12.7106 7.68836 12.4362V6.98008C7.68836 6.70619 7.46669 6.48397 7.19225 6.48397C6.91836 6.48397 6.69614 6.70564 6.69614 6.98008V12.4362C6.69669 12.7106 6.91836 12.9323 7.19225 12.9323ZM2.97614 4.74008V3.01175H11.4089V5.72175C11.2467 5.78119 11.0734 5.81897 10.8906 5.81897C10.2584 5.81897 9.7178 5.42953 9.4928 4.87786C9.36058 4.9923 9.19002 5.06342 9.00225 5.06342C8.74669 5.06342 8.52169 4.93564 8.38502 4.74119C8.11669 5.16119 7.64947 5.44119 7.11391 5.44119C6.6228 5.44119 6.19002 5.20286 5.91447 4.83953C5.77669 5.19119 5.43669 5.44119 5.03669 5.44119C4.67836 5.44119 4.37058 5.23897 4.21002 4.94508C4.06002 5.01842 3.89336 5.06342 3.71447 5.06342C3.22447 5.06342 2.97614 4.74008 2.97614 4.74008Z" fill="#F4900C"/>
<path d="M4.46447 0.531738H10.9128C11.905 0.531738 12.4011 1.02785 12.4011 2.02007V3.55341C12.4011 4.38785 11.7245 5.06396 10.8906 5.06396C10.2584 5.06396 9.7178 4.67452 9.4928 4.12341C9.36058 4.23729 9.19002 4.30896 9.00225 4.30896C8.74669 4.30896 8.52169 4.18118 8.38502 3.98674C8.11669 4.40618 7.64947 4.68618 7.11391 4.68618C6.6228 4.68618 6.19002 4.44785 5.91447 4.08452C5.77669 4.43618 5.43669 4.68618 5.03669 4.68618C4.69225 4.68618 4.3978 4.49729 4.2328 4.22118C4.09891 4.34841 3.91947 4.42785 3.72002 4.42785C3.30891 4.42785 2.97614 4.09452 2.97614 3.68396V2.02007C2.97614 1.02785 3.47225 0.531738 4.46447 0.531738Z" fill="#E1E8ED"/>
<path d="M16.9417 3.59509C16.7994 3.59509 16.6572 3.54064 16.5489 3.43231C16.3317 3.21509 16.3317 2.86342 16.5489 2.6462L18.5222 0.673974C18.7394 0.457308 19.0906 0.457308 19.3078 0.673974C19.525 0.890641 19.525 1.24286 19.3078 1.46009L17.3344 3.43231C17.2261 3.5412 17.0839 3.59509 16.9417 3.59509ZM14.6283 2.65231C14.5678 2.65231 14.5056 2.64175 14.445 2.62064C14.1556 2.51953 14.0028 2.20286 14.1039 1.91286L14.6428 0.372308C14.7444 0.0828631 15.0606 -0.0699146 15.3506 0.0311965C15.64 0.132308 15.7928 0.448974 15.6917 0.738974L15.1528 2.27953C15.0728 2.50897 14.8578 2.65231 14.6283 2.65231ZM18.0411 5.86009C17.8122 5.86009 17.5978 5.71731 17.5172 5.48953C17.415 5.20009 17.5672 4.88286 17.8561 4.78064L19.2417 4.2912C19.5317 4.18842 19.8483 4.3412 19.9506 4.63009C20.0528 4.91953 19.9006 5.23675 19.6117 5.33897L18.2261 5.82842C18.1644 5.85009 18.1022 5.86009 18.0411 5.86009Z" fill="#FA743E"/>
<path d="M18.4889 8.56729H16.5278V10.0556H17.52C18.5122 10.0556 18.5122 10.5517 18.5122 11.0478V15.1517C18.5122 15.9067 17.7961 16.0084 17.7961 16.0084H16.5278V17.4967H18.4889C19.3233 17.4967 20 16.8206 20 15.9862V10.0778C20 9.24396 19.3239 8.56729 18.4889 8.56729Z" fill="#FFAC33"/>
<path d="M17.0239 8.56729H8.59113V18.8651C8.59113 19.4762 9.09113 19.9762 9.70224 19.9762H15.9128C16.5239 19.9762 17.0239 19.4762 17.0239 18.8651V8.56729Z" fill="#FFCC4D"/>
<path d="M10.3272 18.4879C10.0533 18.4879 9.83112 18.2662 9.83112 17.9917V12.5356C9.83112 12.2617 10.0533 12.0395 10.3272 12.0395C10.6011 12.0395 10.8233 12.2612 10.8233 12.5356V17.9917C10.8233 18.2662 10.6011 18.4879 10.3272 18.4879ZM15.2878 18.4879C15.0139 18.4879 14.7917 18.2662 14.7917 17.9917V12.5356C14.7917 12.2617 15.0133 12.0395 15.2878 12.0395C15.5617 12.0395 15.7839 12.2612 15.7839 12.5356V17.9917C15.7839 18.2662 15.5617 18.4879 15.2878 18.4879ZM12.8078 18.4879C12.5339 18.4879 12.3117 18.2662 12.3117 17.9917V12.5356C12.3117 12.2617 12.5333 12.0395 12.8078 12.0395C13.0822 12.0395 13.3039 12.2612 13.3039 12.5356V17.9917C13.3033 18.2662 13.0817 18.4879 12.8078 18.4879Z" fill="#F4900C"/>
<path d="M17.0239 10.2956V8.56729H8.59113V11.2773C8.75335 11.3367 8.92668 11.3745 9.10946 11.3745C9.74168 11.3745 10.2822 10.9851 10.5072 10.4334C10.6395 10.5478 10.81 10.619 10.9978 10.619C11.2533 10.619 11.4783 10.4912 11.615 10.2967C11.8833 10.7167 12.3506 10.9967 12.8861 10.9967C13.3772 10.9967 13.81 10.7584 14.0856 10.3951C14.2233 10.7467 14.5633 10.9967 14.9633 10.9967C15.3217 10.9967 15.6295 10.7945 15.79 10.5006C15.94 10.574 16.1067 10.619 16.2856 10.619C16.7756 10.619 17.0239 10.2956 17.0239 10.2956Z" fill="#FFAC33"/>
<path d="M15.5355 6.08731H9.08721C8.09499 6.08731 7.59888 6.58342 7.59888 7.57564V9.10898C7.59888 9.94342 8.27554 10.6195 9.10943 10.6195C9.74165 10.6195 10.2822 10.2301 10.5072 9.67898C10.6394 9.79287 10.81 9.86453 10.9978 9.86453C11.2533 9.86453 11.4783 9.73676 11.615 9.54231C11.8833 9.96176 12.3505 10.2418 12.8861 10.2418C13.3772 10.2418 13.81 10.0034 14.0855 9.64009C14.2233 9.99176 14.5633 10.2418 14.9633 10.2418C15.3078 10.2418 15.6022 10.0529 15.7672 9.77676C15.9005 9.90398 16.0805 9.98342 16.2794 9.98342C16.6905 9.98342 17.0233 9.65009 17.0233 9.23953V7.57564C17.0239 6.58342 16.5278 6.08731 15.5355 6.08731Z" fill="#EEEEEE"/>
</svg>
