<svg width="26" height="26" viewBox="0 0 26 26" fill="none" xmlns="http://www.w3.org/2000/svg">
<path d="M13 14.2188C13.6731 14.2188 14.2188 13.6731 14.2188 13C14.2188 12.3269 13.6731 11.7812 13 11.7812C12.3269 11.7812 11.7812 12.3269 11.7812 13C11.7812 13.6731 12.3269 14.2188 13 14.2188Z" fill="#808080"/>
<path d="M13 2.4375C7.1759 2.4375 2.4375 7.1759 2.4375 13C2.4375 18.8241 7.1759 23.5625 13 23.5625C18.8241 23.5625 23.5625 18.8241 23.5625 13C23.5625 7.1759 18.8241 2.4375 13 2.4375ZM18.3356 8.19254L15.955 14.1441C15.7915 14.5529 15.5467 14.9241 15.2354 15.2354C14.9241 15.5467 14.5529 15.7915 14.1441 15.955L8.19254 18.3356C8.11871 18.3651 8.03784 18.3724 7.95994 18.3564C7.88204 18.3404 7.81054 18.3019 7.75431 18.2457C7.69808 18.1895 7.65959 18.118 7.64361 18.0401C7.62763 17.9622 7.63486 17.8813 7.66441 17.8075L10.045 11.8559C10.2085 11.4471 10.4533 11.0759 10.7646 10.7646C11.0759 10.4533 11.4471 10.2085 11.8559 10.045L17.8075 7.66441C17.8813 7.63486 17.9622 7.62763 18.0401 7.64361C18.118 7.65959 18.1895 7.69808 18.2457 7.75431C18.3019 7.81054 18.3404 7.88204 18.3564 7.95994C18.3724 8.03784 18.3651 8.11871 18.3356 8.19254Z" fill="#808080"/>
</svg>
