<svg width="22" height="22" viewBox="0 0 22 22" fill="none" xmlns="http://www.w3.org/2000/svg">
<path d="M10.75 0.4375C4.9259 0.4375 0.1875 5.1759 0.1875 11C0.1875 16.8241 4.9259 21.5625 10.75 21.5625C16.5741 21.5625 21.3125 16.8241 21.3125 11C21.3125 5.1759 16.5741 0.4375 10.75 0.4375ZM16.0856 6.19254L13.705 12.1441C13.5415 12.5529 13.2967 12.9241 12.9854 13.2354C12.6741 13.5467 12.3029 13.7915 11.8941 13.955L5.94254 16.3356C5.86871 16.3651 5.78784 16.3724 5.70994 16.3564C5.63204 16.3404 5.56054 16.3019 5.50431 16.2457C5.44808 16.1895 5.40959 16.118 5.39361 16.0401C5.37763 15.9622 5.38486 15.8813 5.41441 15.8075L7.79504 9.8559C7.9585 9.44715 8.2033 9.07587 8.51459 8.76459C8.82587 8.4533 9.19715 8.2085 9.6059 8.04504L15.5575 5.66441C15.6313 5.63486 15.7122 5.62763 15.7901 5.64361C15.868 5.65959 15.9395 5.69808 15.9957 5.75431C16.0519 5.81054 16.0904 5.88204 16.1064 5.95994C16.1224 6.03784 16.1151 6.11871 16.0856 6.19254Z" fill="white"/>
</svg>
