<svg width="136" height="136" viewBox="0 0 136 136" fill="none" xmlns="http://www.w3.org/2000/svg">
<rect y="0.000488281" width="135.265" height="135.265" rx="10.9942" fill="white"/>
<g clip-path="url(#clip0_2_3790)">
<path d="M57.671 99.0895C63.4591 99.0895 68.1567 94.3919 68.1567 88.6038V78.1182H57.671C51.883 78.1182 47.1854 82.8157 47.1854 88.6038C47.1854 94.3919 51.883 99.0895 57.671 99.0895Z" fill="#0ACF83"/>
<path d="M47.1854 67.6331C47.1854 61.845 51.883 57.1475 57.671 57.1475H68.1567V78.1188H57.671C51.883 78.1188 47.1854 73.4212 47.1854 67.6331Z" fill="#A259FF"/>
<path d="M47.1854 46.6614C47.1854 40.8734 51.883 36.1758 57.671 36.1758H68.1567V57.1471H57.671C51.883 57.1471 47.1854 52.4495 47.1854 46.6614Z" fill="#F24E1E"/>
<path d="M68.1566 36.1758H78.6422C84.4303 36.1758 89.1279 40.8734 89.1279 46.6614C89.1279 52.4495 84.4303 57.1471 78.6422 57.1471H68.1566V36.1758Z" fill="#FF7262"/>
<path d="M89.1279 67.6331C89.1279 73.4212 84.4303 78.1188 78.6422 78.1188C72.8541 78.1188 68.1566 73.4212 68.1566 67.6331C68.1566 61.845 72.8541 57.1475 78.6422 57.1475C84.4303 57.1475 89.1279 61.845 89.1279 67.6331Z" fill="#1ABCFE"/>
</g>
<defs>
<clipPath id="clip0_2_3790">
<rect width="41.9426" height="62.9139" fill="white" transform="translate(47.1855 36.1758)"/>
</clipPath>
</defs>
</svg>
