<svg width="54" height="54" viewBox="0 0 54 54" fill="none" xmlns="http://www.w3.org/2000/svg">
<path d="M36.4057 25.1247C36.5307 25.7942 36.5987 26.4941 36.5987 27.2245C36.5987 32.9376 32.7751 37 27 37C25.6867 37.0004 24.3861 36.742 23.1727 36.2396C21.9593 35.7372 20.8567 35.0006 19.928 34.072C18.9994 33.1433 18.2628 32.0407 17.7604 30.8273C17.258 29.6139 16.9996 28.3133 17 27C16.9996 25.6867 17.258 24.3861 17.7604 23.1727C18.2628 21.9593 18.9994 20.8567 19.928 19.928C20.8567 18.9994 21.9593 18.2628 23.1727 17.7604C24.3861 17.258 25.6867 16.9996 27 17C29.7001 17 31.9563 17.9935 33.6873 19.6067L30.8683 22.4256V22.4185C29.819 21.4189 28.4872 20.9059 27 20.9059C23.7005 20.9059 21.0187 23.6934 21.0187 26.9939C21.0187 30.2934 23.7005 33.087 27 33.087C29.9937 33.087 32.0315 31.3753 32.45 29.0246H27V25.1247H36.4067H36.4057Z" fill="white"/>
<rect x="0.5" y="0.5" width="53" height="53" rx="6.49" stroke="#606060"/>
</svg>
