<svg width="20" height="22" viewBox="0 0 20 22" fill="none" xmlns="http://www.w3.org/2000/svg">
<path d="M11.1164 1.05075C10.8147 0.765502 10.4152 0.606567 10 0.606567C9.5848 0.606567 9.18534 0.765502 8.88363 1.05075L1.01213 8.49C0.771109 8.71807 0.579196 8.99296 0.448147 9.2978C0.317098 9.60265 0.249672 9.93105 0.250001 10.2629V19.3141C0.250432 19.9603 0.507429 20.5799 0.964503 21.0366C1.42158 21.4934 2.04132 21.75 2.6875 21.75H5.125C5.77147 21.75 6.39145 21.4932 6.84857 21.0361C7.30569 20.579 7.5625 19.959 7.5625 19.3125V15.25C7.5625 15.0345 7.6481 14.8278 7.80048 14.6755C7.95285 14.5231 8.15951 14.4375 8.375 14.4375H11.625C11.8405 14.4375 12.0472 14.5231 12.1995 14.6755C12.3519 14.8278 12.4375 15.0345 12.4375 15.25V19.3125C12.4375 19.959 12.6943 20.579 13.1514 21.0361C13.6085 21.4932 14.2285 21.75 14.875 21.75H17.3125C17.959 21.75 18.579 21.4932 19.0361 21.0361C19.4932 20.579 19.75 19.959 19.75 19.3125V10.2612C19.7499 9.92958 19.6821 9.60142 19.5508 9.29686C19.4195 8.9923 19.2274 8.71774 18.9863 8.49L11.1164 1.0475V1.05075Z" fill="white"/>
</svg>
