<svg width="21" height="22" viewBox="0 0 21 22" fill="none" xmlns="http://www.w3.org/2000/svg">
<path d="M11.6164 0.444182C11.3147 0.158935 10.9152 0 10.5 0C10.0848 0 9.68534 0.158935 9.38363 0.444182L1.51213 7.88343C1.27111 8.11151 1.0792 8.38639 0.948147 8.69124C0.817098 8.99609 0.749672 9.32448 0.750001 9.65631V18.7076C0.750432 19.3537 1.00743 19.9733 1.4645 20.4301C1.92158 20.8868 2.54132 21.1434 3.1875 21.1434H5.625C6.27147 21.1434 6.89145 20.8866 7.34857 20.4295C7.80569 19.9724 8.0625 19.3524 8.0625 18.7059V14.6434C8.0625 14.4279 8.1481 14.2213 8.30048 14.0689C8.45285 13.9165 8.65951 13.8309 8.875 13.8309H12.125C12.3405 13.8309 12.5472 13.9165 12.6995 14.0689C12.8519 14.2213 12.9375 14.4279 12.9375 14.6434V18.7059C12.9375 19.3524 13.1943 19.9724 13.6514 20.4295C14.1085 20.8866 14.7285 21.1434 15.375 21.1434H17.8125C18.459 21.1434 19.079 20.8866 19.5361 20.4295C19.9932 19.9724 20.25 19.3524 20.25 18.7059V9.65468C20.2499 9.32301 20.1821 8.99486 20.0508 8.69029C19.9195 8.38573 19.7274 8.11118 19.4863 7.88343L11.6164 0.440932V0.444182Z" fill="#808080"/>
</svg>
