<svg width="23" height="20" viewBox="0 0 23 20" fill="none" xmlns="http://www.w3.org/2000/svg">
<path d="M22.0654 8.88072L0 8.68152V15.9717C0.00678386 16.6402 0.622265 17.2791 1.55412 17.8391L3.03177 18.5378C3.4832 18.7093 3.97596 18.8672 4.50757 19.0103L6.71849 19.4802C7.20631 19.5585 7.71448 19.6233 8.2356 19.6775L13.9883 19.7318C14.5236 19.6856 15.0454 19.6288 15.5449 19.556L17.7466 19.12C18.2751 18.985 18.7654 18.8345 19.2131 18.6698L20.6772 17.9927C21.6066 17.4419 22.0722 16.8067 22.0654 16.1345V8.88072Z" fill="#CCD6DC"/>
<path d="M14.0647 17.1891C14.0382 14.5002 12.7141 13.8157 11.0891 13.8015C9.46463 13.7867 8.15411 14.4472 8.18063 17.1361C8.19049 18.1265 8.209 18.9615 8.23551 19.6769C9.16305 19.7731 10.1344 19.8336 11.1415 19.8428C12.1282 19.8515 13.0786 19.8095 13.9882 19.7318C14.048 19.1132 14.0758 18.2881 14.0647 17.1891ZM6.68386 15.9816L6.68448 16.0476L6.68633 16.272L6.68818 16.4392L6.6888 16.4793C6.68941 16.5113 6.6888 16.5064 6.6888 16.4793L6.68818 16.4392L6.68633 16.272L6.68448 16.0476L6.68386 15.9816L6.68324 15.9063C6.66968 14.5619 4.45691 13.8693 4.46986 15.2144V15.2372L4.47109 15.363L4.47232 15.4604L4.47541 15.7503L4.47602 15.7916L4.50748 19.0096C5.18956 19.1928 5.92715 19.3525 6.7184 19.4796L6.68386 15.9316V15.9816ZM17.7095 15.3698L17.7126 15.6818V15.6985L17.7144 15.865C17.715 15.9378 17.715 15.9575 17.7144 15.865L17.7126 15.6985V15.6818L17.7095 15.3698L17.7089 15.334C17.6953 13.9896 15.4955 14.6415 15.509 15.9859V16.0081L15.5442 19.556C16.333 19.4413 17.0675 19.2933 17.7459 19.12L17.7089 15.3581L17.7095 15.3698ZM2.99221 14.5286C2.97864 13.1842 1.50161 12.4984 1.51456 13.8428V13.8681L1.55341 17.8391C1.97031 18.0895 2.468 18.3232 3.03106 18.5379L2.99899 15.2563C3.00084 15.3846 3.00269 15.6152 2.99221 14.5286ZM19.1729 14.6748L19.1803 15.376V15.347V15.376L19.213 18.6692C19.7718 18.4632 20.2645 18.2369 20.6771 17.9921L20.6376 14.0155C20.6247 12.671 19.16 13.3303 19.1729 14.6748ZM1.78407 1.38702C1.61385 1.38702 1.47571 1.52517 1.47571 1.69538V9.32414C1.47571 9.49435 1.61385 9.6325 1.78407 9.6325C1.95428 9.6325 2.09242 9.49435 2.09242 9.32414V1.69538C2.09242 1.52455 1.9549 1.38702 1.78407 1.38702Z" fill="#66757F"/>
<path d="M1.92921 1.82544C2.84072 1.99134 4.19996 2.50506 4.54778 2.70364C4.89561 2.90222 4.68038 3.00213 4.3492 3.15076C4.01741 3.3 2.22709 3.78042 1.96252 3.83038C1.69671 3.88095 1.92921 1.82544 1.92921 1.82544Z" fill="#DD2F45"/>
<path d="M7.33265 0C7.16244 0 7.02429 0.138144 7.02429 0.308357V7.93712C7.02429 8.10733 7.16244 8.24547 7.33265 8.24547C7.50286 8.24547 7.64101 8.10733 7.64101 7.93712V0.308357C7.64101 0.137527 7.50286 0 7.33265 0Z" fill="#66757F"/>
<path d="M7.47703 0.438538C8.38853 0.604434 9.74777 1.11816 10.0962 1.31736C10.444 1.51594 10.2288 1.61585 9.89763 1.76447C9.56584 1.91372 7.77614 2.39414 7.51095 2.44409C7.24453 2.49405 7.47703 0.438538 7.47703 0.438538Z" fill="#226798"/>
<path d="M13.1113 0C12.9411 0 12.8029 0.138144 12.8029 0.308357V7.93712C12.8029 8.10733 12.9411 8.24547 13.1113 8.24547C13.2815 8.24547 13.4196 8.10733 13.4196 7.93712V0.308357C13.4196 0.137527 13.2815 0 13.1113 0Z" fill="#66757F"/>
<path d="M13.2562 0.438538C14.1677 0.604434 15.5264 1.11816 15.8748 1.31736C16.2226 1.51594 16.0074 1.61585 15.6762 1.76447C15.3451 1.91372 13.5547 2.39414 13.2889 2.44409C13.0231 2.49405 13.2562 0.438538 13.2562 0.438538Z" fill="#DD2F45"/>
<path d="M18.6592 1.38702C18.489 1.38702 18.3509 1.52517 18.3509 1.69538V9.32414C18.3509 9.49435 18.489 9.6325 18.6592 9.6325C18.8295 9.6325 18.9676 9.49435 18.9676 9.32414V1.69538C18.9676 1.52455 18.8295 1.38702 18.6592 1.38702Z" fill="#66757F"/>
<path d="M18.8043 1.82544C19.7158 1.99134 21.0744 2.50506 21.4228 2.70426C21.7706 2.90284 21.5554 3.00275 21.2242 3.15138C20.8931 3.30062 19.1027 3.78104 18.8369 3.83099C18.5717 3.88095 18.8043 1.82544 18.8043 1.82544Z" fill="#226798"/>
<path d="M22.0654 8.92263C22.0858 10.9652 17.1632 12.576 11.07 12.5212C4.97626 12.4663 0.0203471 10.7648 0.000612186 8.72343C-0.0197394 6.68087 4.90349 5.07001 10.9966 5.1249C17.0892 5.1804 22.0451 6.88068 22.0654 8.92263Z" fill="#E9EFF3"/>
<path d="M20.4615 9.39439C20.4794 11.2414 16.2752 12.7006 11.0714 12.6543C5.86631 12.6069 1.63257 11.0712 1.61468 9.22417C1.5968 7.37773 5.80032 5.91858 11.0054 5.96545C16.2086 6.01294 20.4436 7.54794 20.4615 9.39439Z" fill="#7450A0"/>
<path d="M16.4582 10.1153L20.0536 7.68608L18.9435 7.00399C18.9435 7.00399 16.7049 9.09712 15.9697 9.80881C15.4295 9.5282 14.6913 9.29262 13.8199 9.12795L15.324 5.85752L13.8051 5.6762L13.1304 9.01818C12.4773 8.92876 11.7724 8.87448 11.0329 8.8677C10.4606 8.86277 9.90867 8.88682 9.38569 8.93307L8.65612 5.62933L7.14085 5.78413L8.67709 9.01263C7.66568 9.15201 6.80413 9.38512 6.18803 9.68176C5.40418 8.92506 3.19881 6.86153 3.19881 6.86153L2.10229 7.52388L5.68787 9.9784C5.35423 10.2232 5.16552 10.4964 5.16798 10.7869C5.17908 11.876 7.8217 12.7832 11.0718 12.8128C14.3206 12.8424 16.9472 11.9827 16.9367 10.893C16.9343 10.6186 16.7634 10.3552 16.4582 10.1153Z" fill="#E9EFF3"/>
<path d="M16.2493 11.0305C16.2573 11.8452 13.9477 12.4841 11.0917 12.4582C8.23567 12.4323 5.91374 11.7514 5.90572 10.9367C5.8977 10.1227 8.20668 9.48377 11.0627 9.50967C13.9181 9.53496 16.2406 10.2164 16.2493 11.0305Z" fill="#5C903F"/>
</svg>
