<svg width="22" height="20" viewBox="0 0 22 20" fill="none" xmlns="http://www.w3.org/2000/svg">
<path d="M21.2336 9.56551C19.6917 7.31952 16.5039 10.6249 10.6862 11.2967C8.53218 11.5452 6.59135 13.3439 4.08917 13.1725C3.06322 13.102 1.63059 10.1502 0.558052 10.6207C0.00625846 10.8632 -0.246945 11.6724 0.320375 12.2803L6.61942 19.7964C6.61942 19.7964 6.93951 20.1654 8.01801 19.9098C8.28376 19.9881 12.2789 18.387 14.5888 15.182C15.1418 14.4146 15.801 13.7756 16.4836 13.2417C18.6998 11.6031 21.1088 11.0322 21.1088 11.0322C21.4169 10.7778 21.4892 10.5073 21.4725 10.2726C21.4928 9.88083 21.2336 9.56551 21.2336 9.56551Z" fill="#5C913B"/>
<path d="M6.82592 5.97887C4.56679 9.11406 0.61048 10.5992 0.61048 10.5992C-0.127633 11.2245 0.495822 11.9614 0.495822 11.9614L6.72918 19.3419C6.72918 19.3419 7.0409 19.7104 8.09074 19.4548C8.09074 19.4548 12.0471 17.9726 14.3056 14.8374C16.634 11.6067 20.8328 10.5867 20.8328 10.5867C21.5703 9.96146 20.9474 9.22334 20.9474 9.22334L14.7141 1.844C14.7141 1.844 14.4023 1.47495 13.3525 1.72935C13.3525 1.72935 9.15432 2.74694 6.82592 5.97887Z" fill="#A7D28B"/>
<path d="M13.1109 11.4885C14.9249 11.4885 16.3954 10.018 16.3954 8.20398C16.3954 6.39001 14.9249 4.91949 13.1109 4.91949C11.2969 4.91949 9.82642 6.39001 9.82642 8.20398C9.82642 10.018 11.2969 11.4885 13.1109 11.4885Z" fill="#77B255"/>
<path d="M7.66019 18.9108C7.13407 18.9108 6.94118 18.7149 6.91491 18.685L1.29605 12.1262C1.2853 12.1137 1.00045 11.7876 1.03508 11.3732C1.05599 11.1218 1.18617 10.8978 1.42146 10.7073L1.45908 10.6846C1.49551 10.6703 5.13949 9.17258 7.18185 6.46557L7.30128 6.55515L7.18185 6.46557C9.34244 3.6015 13.0694 2.37251 13.1065 2.36056C14.1485 2.11811 14.4895 2.46447 14.526 2.50508L20.0708 9.10032C20.0809 9.11107 20.3652 9.43833 20.3305 9.85337C20.3096 10.1042 20.1794 10.3281 19.9442 10.5186L19.885 10.5479C19.8486 10.5568 16.2249 11.4574 14.1258 14.239C12.0363 17.01 8.38875 18.8027 8.35232 18.82C8.07523 18.8857 7.8471 18.9108 7.66019 18.9108ZM7.14004 18.4886C7.14064 18.4886 7.40997 18.737 8.25378 18.5411C8.25856 18.5346 11.8422 16.7723 13.8888 14.0599C15.9413 11.3397 19.3977 10.3681 19.7811 10.2672C19.9346 10.1352 20.0194 9.98893 20.0331 9.83187C20.0582 9.54522 19.8468 9.29859 19.845 9.2962L14.3002 2.70036C14.299 2.70036 14.0315 2.45253 13.1871 2.6484C13.1626 2.65676 9.52339 3.85829 7.42072 6.64532C5.41061 9.30934 1.90338 10.8226 1.59345 10.9528C1.4334 11.0871 1.34621 11.237 1.33248 11.3977C1.30859 11.6819 1.5188 11.9274 1.52059 11.9298L7.14004 18.4886Z" fill="#5C913B"/>
<path d="M12.6783 13.0805L12.6747 16.6277L12.9715 16.9801C13.5501 16.4522 14.1061 15.8586 14.5868 15.1909C15.0855 14.4994 15.6648 13.9076 16.2757 13.4077L15.9872 13.0644L12.6783 13.0805Z" fill="#FFAC33"/>
<path d="M15.9759 13.0519L8.50761 4.20587C7.90088 4.70511 7.31803 5.28736 6.82237 5.97591C6.33806 6.64833 5.77432 7.24014 5.18909 7.76207L6.06216 8.79579L6.06157 8.79639L12.6753 16.6278C13.2606 16.1053 13.8177 15.5075 14.3026 14.8345C14.7983 14.1465 15.3805 13.5649 15.9867 13.0656L15.9753 13.0519H15.9759Z" fill="#FFE8B6"/>
<path d="M8.61933 13.3128C7.68953 12.2116 5.72122 13.9984 5.15988 13.3337C4.88816 13.0118 5.06313 12.5944 5.42025 12.2934C6.02041 11.7858 6.45337 12.0814 6.72508 11.8515C6.91797 11.6891 6.90782 11.4902 6.79316 11.3534C6.52682 11.0387 5.84604 11.203 5.31693 11.5087L5.05955 11.2041C4.89891 11.0142 4.61465 10.9898 4.42475 11.1504C4.23485 11.3116 4.21096 11.5947 4.3716 11.7846L4.63794 12.1005C4.23365 12.6368 4.0963 13.3486 4.57464 13.9141C5.46802 14.9712 7.46081 13.2143 8.08784 13.9571C8.30522 14.2151 8.24431 14.7072 7.78687 15.093C7.10131 15.6728 6.48024 15.4011 6.20136 15.6364C6.0652 15.7505 6.04072 15.9678 6.18583 16.1404C6.41694 16.4133 7.15326 16.3548 7.86092 15.9141C7.86211 15.9153 7.86211 15.9165 7.86211 15.9177L8.15294 16.2617C8.31358 16.4516 8.59843 16.4749 8.78834 16.3154C8.97884 16.1542 9.00213 15.8699 8.84148 15.68L8.55066 15.336C8.54767 15.3324 8.5429 15.3301 8.53931 15.3265C9.01646 14.7424 9.1777 13.9727 8.61933 13.3128Z" fill="#5C913B"/>
<path d="M19.3549 19.3043C19.3602 19.2995 19.3662 19.2959 19.3716 19.2917C19.4122 19.2511 19.4438 19.2046 19.4797 19.1598C19.5047 19.1287 19.5328 19.0989 19.5561 19.0672C19.577 19.0373 19.5943 19.0069 19.6134 18.9764C20.4614 17.6704 19.906 15.4561 18.2274 13.7768C16.5481 12.0975 14.3332 11.5421 13.0277 12.3907C12.9967 12.4093 12.9662 12.4266 12.9364 12.4481C12.9047 12.4714 12.8743 12.4994 12.8444 12.5239C12.8002 12.5603 12.7536 12.5914 12.7124 12.6326C12.7071 12.638 12.7035 12.6439 12.6993 12.6493C12.6927 12.6559 12.685 12.6601 12.6778 12.6672L12.6814 12.6702C12.0842 13.3044 12.077 14.2856 12.6778 14.8869C13.2797 15.4889 14.2603 15.4805 14.8951 14.8834L14.9017 14.8905C14.8891 14.9025 14.8754 14.9102 14.8635 14.9222C14.2311 15.5546 14.2161 16.5632 14.8282 17.1765C15.4409 17.7886 16.4508 17.7737 17.0826 17.1413C17.0945 17.1294 17.1023 17.1156 17.1142 17.1031L17.1208 17.1102C16.5236 17.7444 16.5159 18.7256 17.1178 19.3276C17.7192 19.9283 18.6997 19.9212 19.334 19.324L19.3375 19.3276C19.3435 19.3192 19.3483 19.3114 19.3549 19.3043Z" fill="#E1E8ED"/>
<path d="M12.6789 14.9109C13.22 15.4513 14.065 15.4955 14.6914 15.0667C14.9536 14.6188 15.0288 14.1931 15.0288 14.0599C13.7108 15.0428 12.5344 14.0653 12.271 13.4806C12.1618 13.9858 12.2943 14.5257 12.6789 14.9109ZM17.0377 17.204C17.2157 16.9538 17.3536 16.712 17.4181 16.5483C16.5791 17.3175 14.9751 16.7544 14.489 15.5343C14.2752 16.1016 14.3845 16.755 14.83 17.2004C15.4283 17.7988 16.4029 17.794 17.0377 17.204ZM19.3393 19.3509L19.3566 19.3294C19.3625 19.3246 19.3685 19.321 19.3733 19.3163C19.4145 19.2756 19.4462 19.2291 19.4814 19.1849C19.5071 19.1532 19.5345 19.124 19.5578 19.0917C19.5793 19.0625 19.5966 19.0314 19.6158 19.0009C19.6546 18.9412 19.6755 18.8708 19.7083 18.8075C18.1986 19.4829 17.0718 18.3369 16.7559 17.7654C16.5797 18.313 16.6944 18.9263 17.1195 19.3521C17.7203 19.9534 18.7009 19.9463 19.3357 19.3485L19.3393 19.3509Z" fill="#CCD6DD"/>
<path d="M8.30702 7.30698L8.32374 7.29384C8.36494 7.25323 8.3966 7.20665 8.43183 7.16246C8.45691 7.13141 8.48438 7.10215 8.50767 7.0699C8.52917 7.04004 8.54649 7.00958 8.5656 6.97913C9.41359 5.6731 8.85762 3.45816 7.17895 1.77949C5.49968 0.100223 3.28534 -0.45575 1.97931 0.392244C1.94885 0.411353 1.9178 0.428672 1.88794 0.45017C1.85569 0.47346 1.82643 0.50093 1.79538 0.526012C1.75119 0.561843 1.70461 0.592896 1.664 0.634101C1.65863 0.639476 1.65504 0.646045 1.65086 0.650822C1.64429 0.656794 1.63593 0.662169 1.62936 0.668738L1.63235 0.671723C1.03517 1.30593 1.028 2.28709 1.62936 2.88845C2.23072 3.48981 3.21189 3.48264 3.84609 2.88547L3.85266 2.89203C3.84012 2.90338 3.82638 2.91174 3.81444 2.92369C3.18203 3.5561 3.1671 4.56473 3.7798 5.17804C4.39251 5.79134 5.40174 5.77581 6.03415 5.1434C6.0461 5.13146 6.05386 5.11772 6.06581 5.10518L6.07237 5.11175C5.4752 5.74595 5.46743 6.72712 6.06939 7.32848C6.67075 7.92984 7.65132 7.92267 8.28552 7.32489L8.28851 7.32848C8.29507 7.32191 8.30045 7.31415 8.30702 7.30698Z" fill="#E1E8ED"/>
<path d="M1.62887 2.88908C2.16992 3.43012 3.01493 3.47431 3.64137 3.04435C3.90353 2.59646 3.97818 2.17127 3.97818 2.0381C2.6608 3.02046 1.48376 2.04228 1.221 1.45764C1.11172 1.96345 1.24429 2.5039 1.62887 2.88908ZM5.98888 5.18105C6.16624 4.93083 6.30419 4.69017 6.36809 4.52654C5.52845 5.29571 3.92443 4.73197 3.43892 3.51194C3.22513 4.07926 3.33442 4.73257 3.77932 5.17807C4.37888 5.77704 5.35408 5.77166 5.98888 5.18105ZM8.28861 7.3291C8.29518 7.32254 8.30056 7.31477 8.30653 7.30761L8.32325 7.29447C8.36446 7.25386 8.39611 7.20728 8.43134 7.16309C8.45642 7.13204 8.48389 7.10277 8.50718 7.07053C8.52868 7.04067 8.546 7.01021 8.56511 6.97975C8.60392 6.92004 8.62483 6.84897 8.65767 6.78567C7.148 7.46108 6.02113 6.31569 5.70522 5.74419C5.52905 6.2918 5.64371 6.90511 6.0689 7.3303C6.67026 7.93166 7.65083 7.92449 8.28503 7.32672L8.28861 7.3291Z" fill="#CCD6DD"/>
</svg>
