<svg width="20" height="13" viewBox="0 0 20 13" fill="none" xmlns="http://www.w3.org/2000/svg">
<path d="M19.5005 8.72738C19.5005 9.19692 18.5614 9.50995 17.4658 9.66647C16.7615 8.3361 15.3529 7.31875 13.7095 6.61444C13.866 6.37967 14.0225 6.22315 14.179 5.98838H14.8051C17.2311 5.91013 19.5005 7.39701 19.5005 8.72738ZM6.04029 5.91013H5.41424C2.98827 5.91013 0.718811 7.39701 0.718811 8.72738C0.718811 9.19692 1.6579 9.50995 2.75349 9.66647C3.45781 8.3361 4.86644 7.31875 6.50983 6.61444L6.04029 5.91013ZM10.1097 6.6927C11.8313 6.6927 13.2399 5.28407 13.2399 3.56241C13.2399 1.84076 11.8313 0.432129 10.1097 0.432129C8.388 0.432129 6.97938 1.84076 6.97938 3.56241C6.97938 5.28407 8.388 6.6927 10.1097 6.6927ZM10.1097 7.47527C6.90112 7.47527 3.84909 9.50995 3.84909 11.3881C3.84909 12.9533 10.1097 12.9533 10.1097 12.9533C10.1097 12.9533 16.3702 12.9533 16.3702 11.3881C16.3702 9.50995 13.3182 7.47527 10.1097 7.47527ZM14.5703 5.12755H14.8051C16.1355 5.12755 17.1528 4.11021 17.1528 2.77984C17.1528 1.44947 16.1355 0.432129 14.8051 0.432129C14.4138 0.432129 14.1008 0.510386 13.7877 0.6669C14.4138 1.44947 14.8051 2.46681 14.8051 3.56241C14.8051 4.11021 14.7268 4.65801 14.5703 5.12755ZM5.41424 5.12755H5.64901C5.49249 4.65801 5.41424 4.11021 5.41424 3.56241C5.41424 2.46681 5.80552 1.44947 6.43158 0.6669C6.11855 0.510386 5.80552 0.432129 5.41424 0.432129C4.08387 0.432129 3.06652 1.44947 3.06652 2.77984C3.06652 4.11021 4.08387 5.12755 5.41424 5.12755Z" fill="black"/>
</svg>
