<svg width="19" height="17" viewBox="0 0 19 17" fill="none" xmlns="http://www.w3.org/2000/svg">
<path d="M15.0814 0.121245C15.0068 0.135604 14.9329 0.164086 14.8623 0.210242L4.41852 6.93621L1.19801 7.55589C1.0252 7.58915 0.911771 7.76167 0.946534 7.94233L2.07633 13.8139C2.11109 13.9945 2.28044 14.1126 2.45325 14.0794L4.4484 13.6955C4.41957 13.9373 4.42874 14.186 4.47597 14.4314C4.72498 15.7255 5.98399 16.5748 7.28398 16.3247C8.37188 16.1153 9.14687 15.2005 9.22591 14.1508L17.8701 15.8313C17.9524 15.846 18.032 15.847 18.1066 15.8326C18.4385 15.7688 18.6814 15.4329 18.6096 15.0598L15.8372 0.65191C15.7635 0.27918 15.4153 0.0570092 15.0814 0.121245ZM7.01306 14.9167C6.49267 15.0168 5.98961 14.6778 5.88985 14.1594C5.84753 13.9395 5.88369 13.7146 5.99099 13.5209L7.78705 13.8697C7.84072 14.3603 7.50792 14.8215 7.01306 14.9167Z" fill="#101010"/>
</svg>
