<svg width="136" height="136" viewBox="0 0 136 136" fill="none" xmlns="http://www.w3.org/2000/svg">
<g clip-path="url(#clip0_2_3836)">
<rect x="0.148926" width="135.265" height="135.265" rx="10.9942" fill="#31C5F0"/>
<path d="M57.9184 51.2088C56.2211 50.5206 54.3861 50.2454 52.5052 50.2913C51.3125 50.2913 50.2573 50.2913 49.3857 50.3371C48.4682 50.2913 47.826 50.3371 47.5049 50.383V65.7969C48.1471 65.8428 48.7435 65.8887 49.294 65.8887H51.7253C53.5144 65.8887 55.3036 65.6134 57.0009 65.0629C58.4689 64.6501 59.7534 63.7784 60.7626 62.6316C61.726 61.4847 62.1848 59.925 62.1848 57.9065C62.2306 56.4844 61.8636 55.0622 61.1296 53.8236C60.3647 52.6325 59.2398 51.7165 57.9184 51.2088ZM103.334 13.9585H32.2286C21.448 13.9585 12.7318 22.6747 12.7318 33.4553V101.804C12.7318 112.585 21.448 121.301 32.2286 121.301H103.334C114.115 121.301 122.831 112.585 122.831 101.804V33.4553C122.831 22.6747 114.115 13.9585 103.334 13.9585ZM69.4284 67.4025C67.598 69.9715 65.029 71.8983 62.0471 72.9993C58.9277 74.1461 55.4871 74.559 51.7253 74.559C50.6243 74.559 49.8903 74.559 49.4316 74.5131C48.9728 74.4672 48.3306 74.4673 47.459 74.4673V89.1884C47.5049 89.5096 47.2755 89.7894 46.9544 89.8353H38.0547C37.6877 89.8353 37.5042 89.6472 37.5042 89.2343V42.0338C37.5042 41.7127 37.6418 41.5292 37.9629 41.5292C38.7428 41.5292 39.4768 41.5292 40.5319 41.4833C41.6329 41.4375 42.7798 41.4375 44.0184 41.3916C45.257 41.3457 46.5874 41.3457 48.0095 41.2998C49.4316 41.254 50.8078 41.254 52.1841 41.254C55.9458 41.254 59.0653 41.7127 61.6343 42.6761C63.928 43.4559 66.0382 44.7404 67.7815 46.4378C69.2495 47.9058 70.3963 49.6949 71.1303 51.6675C71.8139 53.5943 72.1809 55.5669 72.1809 57.6312C72.1855 61.5765 71.268 64.8336 69.4284 67.4025ZM101.958 85.2478C100.674 87.0828 98.88 88.5003 96.8202 89.3353C94.5723 90.294 91.8198 90.7941 88.5123 90.7941C86.4066 90.7941 84.3377 90.6152 82.2779 90.2023C80.6723 89.9224 79.0667 89.4224 77.5987 88.7343C77.2775 88.5554 77.0436 88.2343 77.0895 87.8673V79.885C77.0895 79.752 77.1399 79.5639 77.2775 79.4722C77.4106 79.3804 77.5528 79.4263 77.6904 79.5181C79.4795 80.5732 81.3604 81.3118 83.3789 81.7659C85.1175 82.2247 86.9525 82.454 88.7921 82.454C90.5353 82.454 91.774 82.2201 92.5997 81.8072C93.3337 81.4861 93.8383 80.7062 93.8383 79.8805C93.8383 79.2336 93.4713 78.6419 92.7373 78.0455C92.0033 77.4537 90.4941 76.7656 88.2462 75.8848C85.9066 75.059 83.7551 73.958 81.732 72.5864C80.2965 71.5583 79.1047 70.227 78.2409 68.687C77.5118 67.2356 77.151 65.627 77.1904 64.0032C77.1904 62.0306 77.7409 60.1497 78.7547 58.4524C79.9016 56.6174 81.5944 55.1494 83.567 54.2319C85.7185 53.1355 88.4251 52.6309 91.6822 52.6309C93.5631 52.6309 95.4898 52.7685 97.3707 53.0438C98.7469 53.2273 100.077 53.5943 101.316 54.0989C101.495 54.1447 101.683 54.3282 101.775 54.5117C101.821 54.6952 101.866 54.8787 101.866 55.0622V62.5398C101.866 62.7233 101.775 62.9068 101.637 62.9986C101.224 63.0903 100.995 63.0903 100.811 62.9986C99.435 62.2646 97.9671 61.76 96.4073 61.4388C94.7099 61.0718 93.0126 60.8425 91.2693 60.8425C90.3518 60.7966 89.3885 60.9342 88.5123 61.1636C87.9205 61.3012 87.4113 61.6223 87.0901 62.0811C86.8608 62.4481 86.7232 62.9068 86.7232 63.3197C86.7232 63.7326 86.9066 64.1454 87.1865 64.5124C87.5994 65.0171 88.1453 65.4299 88.7462 65.7511C89.7968 66.3015 90.9023 66.8062 91.9987 67.2649C94.4806 68.0907 96.8661 69.2375 99.068 70.6138C100.582 71.5726 101.821 72.8616 102.688 74.4214C103.422 75.8802 103.789 77.495 103.743 79.1419C103.793 81.3026 103.151 83.4541 101.958 85.2478Z" fill="#0C0824"/>
<rect x="11.159" y="9.43727" width="114.818" height="114.818" stroke="#0C0824" stroke-width="25.1656"/>
</g>
<defs>
<clipPath id="clip0_2_3836">
<rect x="0.148926" width="135.265" height="135.265" rx="10.9942" fill="white"/>
</clipPath>
</defs>
</svg>
