<svg width="18" height="18" viewBox="0 0 18 18" fill="none" xmlns="http://www.w3.org/2000/svg">
<path d="M13.1621 2.11451C12.906 2.37062 12.8386 2.54599 12.7877 2.64371C12.4483 3.29479 12.0394 3.50565 11.358 2.82422C11.2911 2.75736 9.25611 0.62976 8.91977 0.244045C8.70017 -0.00795554 8.36383 -0.0850985 8.10514 0.109302C7.90971 0.256388 6.02999 1.79256 5.51571 2.42719C5.11765 2.91834 5.10428 3.52468 5.47508 3.89599C5.64274 4.06365 5.84897 4.12691 6.06702 4.19325C6.35091 4.28017 6.97371 4.22822 7.33731 4.59182C7.92 5.17451 7.61503 6.0956 6.86571 6.86549C6.09582 7.6148 5.17474 7.91977 4.59205 7.33709C4.22793 6.97297 4.28039 6.35068 4.19348 6.0668C4.12713 5.84874 4.06388 5.64303 3.89622 5.47485C3.52542 5.10405 2.91907 5.11794 2.42742 5.51548C1.79227 6.02977 0.256613 7.90949 0.109527 8.10492C-0.0853881 8.3636 -0.00773075 8.69943 0.24427 8.91955C0.629985 9.25589 2.75759 11.2909 2.82445 11.3578C3.50536 12.0387 3.29502 12.4481 2.64393 12.7875C2.54622 12.8384 2.37136 12.9053 2.11473 13.1619C1.36284 13.9138 1.36284 15.1332 2.11473 15.885C2.86662 16.6369 4.08599 16.6369 4.83788 15.885C5.09399 15.6289 5.16136 15.4536 5.21228 15.3558C5.55171 14.7048 5.96057 14.4939 6.642 15.1753C6.70885 15.2422 8.74389 17.3698 9.08023 17.7555C9.29983 18.0075 9.63617 18.0846 9.89486 17.8902C10.0903 17.7432 11.97 16.207 12.4843 15.5724C12.8824 15.0812 12.8957 14.4749 12.5249 14.1036C12.3573 13.9359 12.151 13.8726 11.933 13.8063C11.6491 13.7194 11.0263 13.7713 10.6627 13.4077C10.08 12.825 10.385 11.904 11.1343 11.1341C11.9042 10.3847 12.8253 10.0798 13.408 10.6625C13.7721 11.0266 13.7196 11.6489 13.8065 11.9328C13.8729 12.1508 13.9361 12.3565 14.1038 12.5247C14.4746 12.8955 15.0809 12.8816 15.5726 12.4841C16.2077 11.9698 17.7434 10.0901 17.8905 9.89463C18.0854 9.63595 18.0077 9.30012 17.7557 9.08C17.37 8.74366 15.2424 6.70863 15.1756 6.64177C14.4946 5.96086 14.705 5.55148 15.3561 5.21205C15.4538 5.16114 15.6286 5.09428 15.8853 4.83765C16.6372 4.08577 16.6372 2.86639 15.8853 2.11451C15.1334 1.3621 13.914 1.3621 13.1621 2.11451Z" fill="#78B159"/>
</svg>
