<svg width="27" height="26" viewBox="0 0 27 26" fill="none" xmlns="http://www.w3.org/2000/svg">
<path d="M22.515 20.9292L18.9061 17.3309C20.0705 15.8475 20.7023 14.0157 20.7 12.1299C20.7 10.4505 20.2019 8.80878 19.2689 7.41238C18.3358 6.01598 17.0097 4.92762 15.4581 4.28492C13.9065 3.64223 12.1991 3.47407 10.552 3.80171C8.9048 4.12936 7.39178 4.93808 6.20424 6.12563C5.0167 7.31317 4.20797 8.82619 3.88033 10.4734C3.55268 12.1205 3.72084 13.8279 4.36354 15.3795C5.00623 16.9311 6.09459 18.2572 7.49099 19.1903C8.8874 20.1233 10.5291 20.6213 12.2086 20.6213C14.0943 20.6237 15.9262 19.9919 17.4095 18.8275L21.0078 22.4364C21.1064 22.5359 21.2238 22.6148 21.3532 22.6687C21.4825 22.7226 21.6213 22.7503 21.7614 22.7503C21.9015 22.7503 22.0402 22.7226 22.1696 22.6687C22.2989 22.6148 22.4163 22.5359 22.515 22.4364C22.6145 22.3377 22.6934 22.2203 22.7473 22.091C22.8012 21.9616 22.829 21.8229 22.829 21.6828C22.829 21.5426 22.8012 21.4039 22.7473 21.2746C22.6934 21.1452 22.6145 21.0278 22.515 20.9292ZM5.84002 12.1299C5.84002 10.8704 6.21352 9.63907 6.91331 8.59177C7.61309 7.54447 8.60772 6.7282 9.77142 6.24618C10.9351 5.76416 12.2156 5.63804 13.451 5.88377C14.6864 6.1295 15.8211 6.73605 16.7118 7.62671C17.6025 8.51736 18.209 9.65213 18.4547 10.8875C18.7005 12.1229 18.5743 13.4034 18.0923 14.5671C17.6103 15.7308 16.794 16.7254 15.7467 17.4252C14.6994 18.125 13.4681 18.4985 12.2086 18.4985C10.5195 18.4985 8.89965 17.8275 7.70532 16.6332C6.51099 15.4389 5.84002 13.819 5.84002 12.1299Z" fill="black" fill-opacity="0.2"/>
</svg>
