<svg width="16" height="16" viewBox="0 0 16 16" fill="none" xmlns="http://www.w3.org/2000/svg">
<path d="M15.7866 6.78405L13.9999 6.25072C13.8764 5.81942 13.7065 5.40277 13.4933 5.00806L14.3679 3.37073C14.4008 3.30893 14.4128 3.23819 14.4022 3.16902C14.3916 3.09984 14.359 3.03592 14.3093 2.98673L13.0346 1.70674C12.9854 1.65696 12.9215 1.62437 12.8523 1.6138C12.7831 1.60324 12.7124 1.61525 12.6506 1.64807L11.0239 2.5174C10.6253 2.29376 10.2032 2.11489 9.76529 1.98407L9.23196 0.218747C9.2094 0.15369 9.16678 0.0974673 9.11023 0.058173C9.05369 0.0188787 8.98613 -0.00146092 8.91729 8.16896e-05H7.11463C7.04537 0.000404127 6.97803 0.02282 6.92239 0.0640671C6.86676 0.105314 6.82574 0.16324 6.8053 0.229414L6.27197 1.9894C5.83038 2.11953 5.40465 2.2984 5.00264 2.52274L3.40265 1.65874C3.34085 1.62592 3.27011 1.6139 3.20093 1.62447C3.13176 1.63504 3.06784 1.66763 3.01865 1.71741L1.72266 2.9814C1.67288 3.03058 1.64029 3.09451 1.62972 3.16368C1.61915 3.23286 1.63117 3.30359 1.66399 3.3654L2.52799 4.96539C2.30402 5.3657 2.12515 5.78963 1.99466 6.22938L0.229332 6.76271C0.163158 6.78315 0.105232 6.82417 0.0639854 6.87981C0.0227383 6.93544 0.000322438 7.00279 0 7.07205V8.8747C0.000322438 8.94396 0.0227383 9.01131 0.0639854 9.06694C0.105232 9.12258 0.163158 9.1636 0.229332 9.18403L2.00532 9.71737C2.13724 10.1498 2.31608 10.5665 2.53865 10.96L1.66399 12.6347C1.63117 12.6965 1.61915 12.7672 1.62972 12.8364C1.64029 12.9056 1.67288 12.9695 1.72266 13.0187L2.99732 14.2933C3.0465 14.3431 3.11043 14.3757 3.1796 14.3863C3.24878 14.3968 3.31951 14.3848 3.38132 14.352L5.02931 13.472C5.41916 13.6824 5.83038 13.8504 6.25597 13.9733L6.7893 15.7707C6.80974 15.8368 6.85076 15.8948 6.90639 15.936C6.96203 15.9773 7.02938 15.9997 7.09863 16H8.90129C8.97055 15.9997 9.03789 15.9773 9.09353 15.936C9.14917 15.8948 9.19019 15.8368 9.21062 15.7707L9.74395 13.968C10.1659 13.8445 10.5735 13.6764 10.9599 13.4667L12.6186 14.352C12.6804 14.3848 12.7511 14.3968 12.8203 14.3863C12.8895 14.3757 12.9534 14.3431 13.0026 14.2933L14.2773 13.0187C14.327 12.9695 14.3596 12.9056 14.3702 12.8364C14.3808 12.7672 14.3688 12.6965 14.3359 12.6347L13.4506 10.9814C13.6625 10.5935 13.8324 10.184 13.9573 9.76003L15.7546 9.2267C15.8208 9.20626 15.8787 9.16524 15.9199 9.10961C15.9612 9.05397 15.9836 8.98663 15.9839 8.91737V7.09871C15.9871 7.03239 15.9698 6.9667 15.9346 6.91045C15.8993 6.8542 15.8477 6.81009 15.7866 6.78405ZM8.01596 10.9334C7.43581 10.9334 6.86868 10.7613 6.3863 10.439C5.90391 10.1167 5.52794 9.65857 5.30593 9.12257C5.08391 8.58658 5.02582 7.99679 5.139 7.42778C5.25219 6.85877 5.53156 6.3361 5.94179 5.92587C6.35202 5.51564 6.87469 5.23627 7.4437 5.12309C8.01271 5.0099 8.6025 5.06799 9.13849 5.29001C9.67449 5.51202 10.1326 5.88799 10.4549 6.37038C10.7772 6.85276 10.9493 7.41989 10.9493 8.00004C10.9493 8.77801 10.6402 9.52411 10.0901 10.0742C9.54003 10.6243 8.79393 10.9334 8.01596 10.9334Z" fill="black"/>
</svg>
