<svg width="20" height="24" viewBox="0 0 20 24" fill="none" xmlns="http://www.w3.org/2000/svg">
<path d="M16.669 3.20862H17.9513V4.74465H16.669V3.20862Z" fill="#66757F"/>
<path d="M17.4303 3.20862H4.58184C3.16273 3.20862 2.01215 4.3592 2.01215 5.77832V21.1965C2.01215 22.6156 3.16273 23.7662 4.58184 23.7662H17.4303C18.8494 23.7662 20 22.6156 20 21.1965V5.77832C20 4.3592 18.8494 3.20862 17.4303 3.20862Z" fill="#55ACEE"/>
<path d="M16.1455 3.20862H3.29699C1.87788 3.20862 0.727295 4.3592 0.727295 5.77832V21.1965C0.727295 22.6156 1.87788 23.7662 3.29699 23.7662H16.1455C17.5646 23.7662 18.7152 22.6156 18.7152 21.1965V5.77832C18.7152 4.3592 17.5646 3.20862 16.1455 3.20862Z" fill="#CCD6DD"/>
<path d="M16.7878 10.2754C16.7878 10.6306 16.5006 10.9178 16.1453 10.9178H3.29684C2.94223 10.9178 2.65442 10.6306 2.65442 10.2754C2.65442 9.92074 2.94223 9.63293 3.29684 9.63293H16.1453C16.5006 9.63293 16.7878 9.92074 16.7878 10.2754ZM16.7878 13.4875C16.7878 13.8427 16.5006 14.1299 16.1453 14.1299H3.29684C2.94223 14.1299 2.65442 13.8427 2.65442 13.4875C2.65442 13.1322 2.94223 12.8451 3.29684 12.8451H16.1453C16.5006 12.8451 16.7878 13.1322 16.7878 13.4875ZM16.7878 16.6996C16.7878 17.0549 16.5006 17.342 16.1453 17.342H3.29684C2.94223 17.342 2.65442 17.0549 2.65442 16.6996C2.65442 16.3443 2.94223 16.0572 3.29684 16.0572H16.1453C16.5006 16.0572 16.7878 16.3443 16.7878 16.6996ZM11.6484 19.9117C11.6484 20.267 11.3612 20.5541 11.0059 20.5541H3.29684C2.94223 20.5541 2.65442 20.267 2.65442 19.9117C2.65442 19.5565 2.94223 19.2693 3.29684 19.2693H11.0059C11.3612 19.2693 11.6484 19.5565 11.6484 19.9117Z" fill="#99AAB5"/>
<path d="M3.83392 6.24798C3.38293 6.24798 3.0174 5.82012 3.0174 5.29141C3.0174 4.76334 3.38293 4.33484 3.83392 4.33484C4.28426 4.33484 4.64979 4.76334 4.64979 5.29141C4.64979 5.81948 4.28426 6.24798 3.83392 6.24798Z" fill="#292F33"/>
<path d="M4.28812 5.18924C4.25278 4.88087 4.04785 4.68044 3.81979 4.53589C3.50821 4.33867 3.17737 3.88833 3.17737 3.33006C3.17737 2.62082 3.60843 1.98418 4.141 1.98418C4.67357 1.98418 5.10464 2.56557 5.10464 3.208H6.38692C6.37343 1.92315 5.3751 0.753296 4.141 0.753296C2.89855 0.753296 1.89252 1.92187 1.89252 3.32621C1.89252 4.51662 2.56385 5.49182 3.5429 5.84836C4.03115 6.02567 4.32923 5.5612 4.28812 5.18924Z" fill="#66757F"/>
<path d="M7.68853 6.24798C7.23755 6.24798 6.87201 5.82012 6.87201 5.29141C6.87201 4.76334 7.23755 4.33484 7.68853 4.33484C8.13887 4.33484 8.50441 4.76334 8.50441 5.29141C8.50441 5.81948 8.13887 6.24798 7.68853 6.24798Z" fill="#292F33"/>
<path d="M8.14273 5.18924C8.1074 4.88087 7.90246 4.68044 7.6744 4.53589C7.36283 4.33867 7.03198 3.88833 7.03198 3.33006C7.03198 2.62082 7.46305 1.98418 7.99562 1.98418C8.52819 1.98418 8.95925 2.56557 8.95925 3.208H10.2415C10.2287 1.92315 9.22971 0.753296 7.99562 0.753296C6.75317 0.753296 5.74713 1.92187 5.74713 3.32621C5.74713 4.51662 6.41846 5.49182 7.39752 5.84836C7.88576 6.02567 8.18385 5.5612 8.14273 5.18924Z" fill="#66757F"/>
<path d="M11.5431 6.24798C11.0922 6.24798 10.7266 5.82012 10.7266 5.29141C10.7266 4.76334 11.0922 4.33484 11.5431 4.33484C11.9935 4.33484 12.3597 4.76334 12.3597 5.29141C12.359 5.81948 11.9935 6.24798 11.5431 6.24798Z" fill="#292F33"/>
<path d="M11.9974 5.18924C11.962 4.88087 11.7571 4.68044 11.5297 4.53589C11.2181 4.33867 10.8873 3.88833 10.8873 3.33006C10.8873 2.62082 11.3183 1.98418 11.8509 1.98418C12.3835 1.98418 12.8145 2.56557 12.8145 3.208H14.0968C14.084 1.92315 13.085 0.753296 11.8509 0.753296C10.6085 0.753296 9.60242 1.92187 9.60242 3.32621C9.60242 4.51662 10.2738 5.49182 11.2528 5.84836C11.7404 6.02567 12.0385 5.5612 11.9974 5.18924Z" fill="#66757F"/>
<path d="M15.3978 6.24798C14.9468 6.24798 14.5812 5.82012 14.5812 5.29141C14.5812 4.76334 14.9468 4.33484 15.3978 4.33484C15.8481 4.33484 16.2143 4.76334 16.2143 5.29141C16.2136 5.81948 15.8481 6.24798 15.3978 6.24798Z" fill="#292F33"/>
<path d="M15.852 5.18924C15.8167 4.88087 15.6117 4.68044 15.3843 4.53589C15.0727 4.33867 14.7419 3.88833 14.7419 3.33006C14.7419 2.62082 15.1729 1.98418 15.7055 1.98418C16.2381 1.98418 16.6692 2.56557 16.6692 3.208H17.9514C17.9386 1.92315 16.9396 0.753296 15.7055 0.753296C14.4631 0.753296 13.457 1.92187 13.457 3.32621C13.457 4.51662 14.1284 5.49182 15.1074 5.84836C15.595 6.02567 15.8931 5.5612 15.852 5.18924Z" fill="#66757F"/>
</svg>
